# This file uses centimeters as units for non-parametric coordinates.

mtllib cloth02.mtl
g default
v -2.564401 2.786523 0.027946
v -2.538820 2.786523 0.056133
v -0.926360 5.169323 1.275026
v -1.498883 5.169323 0.487017
v -2.538824 2.786523 -0.056625
v -2.564401 2.786523 -0.028468
v -1.498883 5.169323 -0.487016
v -0.926361 5.169323 -1.275026
v -1.445216 4.116448 0.700539
v -1.461185 3.967689 0.714348
v -1.521725 3.829813 0.695375
v -1.618430 3.721463 0.646339
v -1.539249 3.697104 0.755320
v -1.408394 3.808727 0.838682
v -1.308739 3.934966 0.907782
v -1.243428 4.085500 0.962299
v -1.618311 3.721558 -0.645640
v -1.521681 3.829879 -0.695033
v -1.461181 3.967802 -0.714238
v -1.445226 4.116639 -0.700500
v -1.243402 4.085588 -0.962324
v -1.308974 3.934889 -0.907678
v -1.409195 3.808787 -0.838387
v -1.540855 3.697442 -0.754778
v -2.500475 2.937141 0.135757
v -2.436003 3.032899 0.197754
v -2.525640 2.953568 0.115126
v -2.462482 3.049520 0.172521
v -2.496094 2.942676 -0.138831
v -2.421980 3.050557 -0.208644
v -2.527959 2.943575 -0.106930
v -2.459621 3.051797 -0.169892
v 2.564401 2.786523 0.027946
v 2.538820 2.786523 0.056133
v 0.926360 5.169323 1.275026
v 1.498883 5.169323 0.487017
v 2.538824 2.786523 -0.056625
v 2.564401 2.786523 -0.028468
v 1.498883 5.169323 -0.487016
v 0.926361 5.169323 -1.275026
v 1.445216 4.116448 0.700539
v 1.461185 3.967689 0.714348
v 1.521725 3.829813 0.695375
v 1.618430 3.721463 0.646339
v 1.539249 3.697104 0.755320
v 1.408394 3.808727 0.838682
v 1.308739 3.934966 0.907782
v 1.243428 4.085500 0.962299
v 1.618311 3.721558 -0.645640
v 1.521681 3.829879 -0.695033
v 1.461181 3.967802 -0.714238
v 1.445226 4.116639 -0.700500
v 1.243402 4.085588 -0.962324
v 1.308974 3.934889 -0.907678
v 1.409195 3.808787 -0.838387
v 1.540855 3.697442 -0.754778
v 2.500475 2.937141 0.135757
v 2.436003 3.032899 0.197754
v 2.525640 2.953568 0.115126
v 2.462482 3.049520 0.172521
v 2.496094 2.942676 -0.138831
v 2.421980 3.050557 -0.208644
v 2.527959 2.943575 -0.106930
v 2.459621 3.051797 -0.169892
vt 0.195818 0.634985
vt 0.213571 0.632645
vt 0.232777 0.644906
vt 0.209113 0.651224
vt 0.250638 0.657672
vt 0.218757 0.669506
vt 0.266273 0.673581
vt 0.223731 0.689352
vt 0.044465 0.755042
vt 0.001953 0.769499
vt 0.003672 0.747512
vt 0.035638 0.736604
vt 0.009224 0.726487
vt 0.031319 0.716363
vt 0.016014 0.704975
vt 0.031054 0.695355
vt 0.366736 0.795273
vt 0.243084 0.833827
vt 0.121943 0.876909
vt 0.001953 0.927459
vt 0.090658 0.520260
vt 0.085666 0.521907
vt 0.073404 0.509807
vt 0.077229 0.506800
vt 0.042883 0.537205
vt 0.044970 0.518397
vt 0.039538 0.521286
vt 0.037862 0.542227
vt 0.059528 0.490168
vt 0.054505 0.491700
vt 0.047192 0.494499
vt 0.042343 0.496540
vt 0.569720 0.853230
vt 0.583015 0.836991
vt 0.606679 0.843309
vt 0.587473 0.855570
vt 0.592659 0.818709
vt 0.624540 0.830543
vt 0.597633 0.798863
vt 0.640175 0.814634
vt 0.418367 0.733173
vt 0.409540 0.751611
vt 0.377574 0.740703
vt 0.375855 0.718716
vt 0.405221 0.771851
vt 0.383126 0.761728
vt 0.404956 0.792860
vt 0.389916 0.783240
vt 0.616986 0.654388
vt 0.740638 0.692942
vt 0.375855 0.560756
vt 0.495845 0.611306
vt 0.153819 0.176349
vt 0.153819 0.511150
vt 0.001953 0.468464
vt 0.001953 0.219036
vt 0.375855 0.468465
vt 0.375855 0.219036
vt 0.527709 0.176353
vt 0.527709 0.511147
vt 0.175373 0.167557
vt 0.175373 0.519943
vt 0.213504 0.136524
vt 0.213504 0.550976
vt 0.194748 0.533359
vt 0.194748 0.154140
vt 0.568661 0.533468
vt 0.568661 0.154033
vt 0.587407 0.136308
vt 0.587407 0.551193
vt 0.549290 0.167526
vt 0.549290 0.519975
vt 0.345612 0.007115
vt 0.345612 0.680384
vt 0.330254 0.671705
vt 0.330254 0.015795
vt 0.464560 0.967955
vt 0.451131 0.981415
vt 0.447307 0.978408
vt 0.459569 0.966308
vt 0.418873 0.969818
vt 0.416785 0.951010
vt 0.413440 0.966929
vt 0.411764 0.945988
vt 0.701382 0.669817
vt 0.701382 0.017684
vt 0.718682 0.007706
vt 0.718682 0.679795
vt 0.433430 0.998047
vt 0.428407 0.996515
vt 0.421094 0.993716
vt 0.416245 0.991675
vt 0.368549 0.001953
vt 0.368549 0.685547
vt 0.742440 0.001953
vt 0.742440 0.685548
vn -0.681283 0.726868 0.086697
vn -0.009439 -0.633900 0.773357
vn -0.046589 -0.535160 0.843465
vn -0.862094 0.500075 0.081969
vn -0.862094 0.500075 0.081969
vn -0.046589 -0.535160 0.843465
vn -0.064768 -0.398379 0.914931
vn -0.961512 0.249600 0.114865
vn -0.961512 0.249600 0.114865
vn -0.064768 -0.398379 0.914931
vn -0.224051 -0.217028 0.950105
vn -0.968405 0.015649 0.248891
vn -0.968405 0.015646 -0.248890
vn -0.223969 -0.217139 -0.950099
vn -0.064742 -0.399458 -0.914463
vn -0.961524 0.249601 -0.114765
vn -0.961524 0.249601 -0.114765
vn -0.064742 -0.399458 -0.914463
vn -0.046595 -0.537188 -0.842175
vn -0.862041 0.500272 -0.081327
vn -0.862041 0.500272 -0.081327
vn -0.046595 -0.537188 -0.842175
vn -0.009666 -0.635857 -0.771746
vn -0.679264 0.729508 -0.080115
vn -0.224051 -0.217028 0.950105
vn -0.132688 -0.237519 0.962278
vn -0.981978 -0.014443 0.188444
vn -0.968405 0.015649 0.248891
vn -0.968405 0.015646 -0.248890
vn -0.981980 -0.014445 -0.188434
vn -0.132692 -0.237519 -0.962277
vn -0.223969 -0.217139 -0.950099
vn -0.981978 -0.014443 0.188444
vn -0.981980 -0.014445 -0.188434
vn -0.968405 0.015646 -0.248890
vn -0.968405 0.015649 0.248891
vn -0.968405 0.015649 0.248891
vn -0.968405 0.015646 -0.248890
vn -0.961524 0.249601 -0.114765
vn -0.961512 0.249600 0.114865
vn -0.961512 0.249600 0.114865
vn -0.961524 0.249601 -0.114765
vn -0.862041 0.500272 -0.081327
vn -0.862094 0.500075 0.081969
vn -0.862094 0.500075 0.081969
vn -0.862041 0.500272 -0.081327
vn -0.679264 0.729508 -0.080115
vn -0.681283 0.726868 0.086697
vn -0.031546 -0.587350 0.808718
vn -0.640322 0.767353 0.034004
vn -0.909246 0.402992 0.104254
vn -0.006048 -0.487012 0.873374
vn -0.640322 0.767353 0.034004
vn -0.636826 0.770666 -0.022956
vn -0.913784 0.386876 -0.123800
vn -0.909246 0.402992 0.104254
vn -0.006185 -0.486511 -0.873653
vn -0.913784 0.386876 -0.123800
vn -0.636826 0.770666 -0.022956
vn -0.036084 -0.581529 -0.812725
vn -0.008116 -0.465784 0.884861
vn -0.006048 -0.487012 0.873374
vn -0.909246 0.402992 0.104254
vn -0.979357 0.180853 0.090288
vn -0.978977 0.180470 -0.095054
vn -0.913784 0.386876 -0.123800
vn -0.006185 -0.486511 -0.873653
vn -0.008281 -0.464097 -0.885746
vn -0.909246 0.402992 0.104254
vn -0.913784 0.386876 -0.123800
vn -0.978977 0.180470 -0.095054
vn -0.979357 0.180853 0.090288
vn -0.031546 -0.587350 0.808718
vn -0.009439 -0.633900 0.773357
vn -0.681283 0.726868 0.086697
vn -0.640322 0.767353 0.034004
vn -0.636826 0.770666 -0.022956
vn -0.679264 0.729508 -0.080115
vn -0.009666 -0.635857 -0.771746
vn -0.036084 -0.581529 -0.812725
vn -0.681283 0.726868 0.086697
vn -0.679264 0.729508 -0.080115
vn -0.636826 0.770666 -0.022956
vn -0.640322 0.767353 0.034004
vn 0.681283 0.726868 0.086697
vn 0.862094 0.500075 0.081969
vn 0.046589 -0.535160 0.843465
vn 0.009439 -0.633900 0.773357
vn 0.862094 0.500075 0.081969
vn 0.961512 0.249600 0.114865
vn 0.064768 -0.398379 0.914931
vn 0.046589 -0.535160 0.843465
vn 0.961512 0.249600 0.114865
vn 0.968405 0.015649 0.248891
vn 0.224051 -0.217028 0.950105
vn 0.064768 -0.398379 0.914931
vn 0.968405 0.015646 -0.248890
vn 0.961524 0.249601 -0.114765
vn 0.064742 -0.399458 -0.914463
vn 0.223969 -0.217139 -0.950099
vn 0.961524 0.249601 -0.114765
vn 0.862041 0.500271 -0.081327
vn 0.046595 -0.537188 -0.842175
vn 0.064742 -0.399458 -0.914463
vn 0.862041 0.500271 -0.081327
vn 0.679265 0.729508 -0.080115
vn 0.009666 -0.635857 -0.771746
vn 0.046595 -0.537188 -0.842175
vn 0.224051 -0.217028 0.950105
vn 0.968405 0.015649 0.248891
vn 0.981978 -0.014443 0.188444
vn 0.132688 -0.237519 0.962278
vn 0.968405 0.015646 -0.248890
vn 0.223969 -0.217139 -0.950099
vn 0.132692 -0.237519 -0.962277
vn 0.981980 -0.014445 -0.188434
vn -0.224051 -0.217028 0.950105
vn 0.224051 -0.217028 0.950105
vn 0.132688 -0.237519 0.962278
vn -0.132688 -0.237519 0.962278
vn -0.132692 -0.237519 -0.962277
vn 0.132692 -0.237519 -0.962277
vn 0.223969 -0.217139 -0.950099
vn -0.223969 -0.217139 -0.950099
vn 0.981978 -0.014443 0.188444
vn 0.968405 0.015649 0.248891
vn 0.968405 0.015646 -0.248890
vn 0.981980 -0.014445 -0.188434
vn -0.064768 -0.398379 0.914931
vn 0.064768 -0.398379 0.914931
vn 0.224051 -0.217028 0.950105
vn -0.224051 -0.217028 0.950105
vn -0.009439 -0.633900 0.773357
vn 0.009439 -0.633900 0.773357
vn 0.046589 -0.535160 0.843465
vn -0.046589 -0.535160 0.843465
vn -0.046589 -0.535160 0.843465
vn 0.046589 -0.535160 0.843465
vn 0.064768 -0.398379 0.914931
vn -0.064768 -0.398379 0.914931
vn 0.968405 0.015649 0.248891
vn 0.961512 0.249600 0.114865
vn 0.961524 0.249601 -0.114765
vn 0.968405 0.015646 -0.248890
vn 0.961512 0.249600 0.114865
vn 0.862094 0.500075 0.081969
vn 0.862041 0.500271 -0.081327
vn 0.961524 0.249601 -0.114765
vn 0.862094 0.500075 0.081969
vn 0.681283 0.726868 0.086697
vn 0.679265 0.729508 -0.080115
vn 0.862041 0.500271 -0.081327
vn -0.046595 -0.537188 -0.842175
vn 0.046595 -0.537188 -0.842175
vn 0.009666 -0.635857 -0.771746
vn -0.009666 -0.635857 -0.771746
vn -0.223969 -0.217139 -0.950099
vn 0.223969 -0.217139 -0.950099
vn 0.064742 -0.399458 -0.914463
vn -0.064742 -0.399458 -0.914463
vn -0.064742 -0.399458 -0.914463
vn 0.064742 -0.399458 -0.914463
vn 0.046595 -0.537188 -0.842175
vn -0.046595 -0.537188 -0.842175
vn -0.006048 -0.487012 0.873374
vn 0.006048 -0.487012 0.873374
vn 0.031546 -0.587350 0.808718
vn -0.031546 -0.587350 0.808718
vn 0.031546 -0.587350 0.808718
vn 0.006048 -0.487012 0.873374
vn 0.909246 0.402992 0.104254
vn 0.640322 0.767353 0.034004
vn 0.640322 0.767353 0.034004
vn 0.909246 0.402992 0.104254
vn 0.913783 0.386877 -0.123800
vn 0.636826 0.770666 -0.022956
vn 0.006185 -0.486511 -0.873653
vn 0.036084 -0.581529 -0.812725
vn 0.636826 0.770666 -0.022956
vn 0.913783 0.386877 -0.123800
vn -0.036084 -0.581529 -0.812725
vn 0.036084 -0.581529 -0.812725
vn 0.006185 -0.486511 -0.873653
vn -0.006185 -0.486511 -0.873653
vn 0.008116 -0.465784 0.884861
vn 0.979357 0.180853 0.090288
vn 0.909246 0.402992 0.104254
vn 0.006048 -0.487012 0.873374
vn 0.978977 0.180470 -0.095054
vn 0.008281 -0.464097 -0.885746
vn 0.006185 -0.486511 -0.873653
vn 0.913783 0.386877 -0.123800
vn -0.008116 -0.465784 0.884861
vn 0.008116 -0.465784 0.884861
vn 0.006048 -0.487012 0.873374
vn -0.006048 -0.487012 0.873374
vn -0.006185 -0.486511 -0.873653
vn 0.006185 -0.486511 -0.873653
vn 0.008281 -0.464097 -0.885746
vn -0.008281 -0.464097 -0.885746
vn 0.909246 0.402992 0.104254
vn 0.979357 0.180853 0.090288
vn 0.978977 0.180470 -0.095054
vn 0.913783 0.386877 -0.123800
vn 0.031546 -0.587350 0.808718
vn 0.640322 0.767353 0.034004
vn 0.681283 0.726868 0.086697
vn 0.009439 -0.633900 0.773357
vn 0.636826 0.770666 -0.022956
vn 0.036084 -0.581529 -0.812725
vn 0.009666 -0.635857 -0.771746
vn 0.679265 0.729508 -0.080115
vn -0.031546 -0.587350 0.808718
vn 0.031546 -0.587350 0.808718
vn 0.009439 -0.633900 0.773357
vn -0.009439 -0.633900 0.773357
vn -0.009666 -0.635857 -0.771746
vn 0.009666 -0.635857 -0.771746
vn 0.036084 -0.581529 -0.812725
vn -0.036084 -0.581529 -0.812725
vn 0.681283 0.726868 0.086697
vn 0.640322 0.767353 0.034004
vn 0.636826 0.770666 -0.022956
vn 0.679265 0.729508 -0.080115
s off
g cloth02:pPlane6
usemtl cloth02:lambert17SG
f 12/1/1 13/2/2 14/3/3 11/4/4
f 11/4/5 14/3/6 15/5/7 10/6/8
f 10/6/9 15/5/10 16/7/11 9/8/12
f 20/9/13 21/10/14 22/11/15 19/12/16
f 19/12/17 22/11/18 23/13/19 18/14/20
f 18/14/21 23/13/22 24/15/23 17/16/24
f 16/7/25 3/17/26 4/18/27 9/8/28
f 20/9/29 7/19/30 8/20/31 21/10/32
f 4/18/33 7/19/34 20/9/35 9/8/36
f 9/8/37 20/9/38 19/12/39 10/6/40
f 10/6/41 19/12/42 18/14/43 11/4/44
f 11/4/45 18/14/46 17/16/47 12/1/48
f 26/21/49 28/22/50 27/23/51 25/24/52
f 28/22/53 32/25/54 31/26/55 27/23/56
f 29/27/57 31/26/58 32/25/59 30/28/60
f 2/29/61 25/24/62 27/23/63 1/30/64
f 6/31/65 31/26/66 29/27/67 5/32/68
f 27/23/69 31/26/70 6/31/71 1/30/72
f 26/21/73 13/2/74 12/1/75 28/22/76
f 32/25/77 17/16/78 24/15/79 30/28/80
f 12/1/81 17/16/82 32/25/83 28/22/84
f 44/33/85 43/34/86 46/35/87 45/36/88
f 43/34/89 42/37/90 47/38/91 46/35/92
f 42/37/93 41/39/94 48/40/95 47/38/96
f 52/41/97 51/42/98 54/43/99 53/44/100
f 51/42/101 50/45/102 55/46/103 54/43/104
f 50/45/105 49/47/106 56/48/107 55/46/108
f 48/40/109 41/39/110 36/49/111 35/50/112
f 52/41/113 53/44/114 40/51/115 39/52/116
f 16/53/117 48/54/118 35/55/119 3/56/120
f 8/57/121 40/58/122 53/59/123 21/60/124
f 36/49/125 41/39/126 52/41/127 39/52/128
f 15/61/129 47/62/130 48/54/131 16/53/132
f 13/63/133 45/64/134 46/65/135 14/66/136
f 14/66/137 46/65/138 47/62/139 15/61/140
f 41/39/141 42/37/142 51/42/143 52/41/144
f 42/37/145 43/34/146 50/45/147 51/42/148
f 43/34/149 44/33/150 49/47/151 50/45/152
f 23/67/153 55/68/154 56/69/155 24/70/156
f 21/60/157 53/59/158 54/71/159 22/72/160
f 22/72/161 54/71/162 55/68/163 23/67/164
f 25/73/165 57/74/166 58/75/167 26/76/168
f 58/77/169 57/78/170 59/79/171 60/80/172
f 60/80/173 59/79/174 63/81/175 64/82/176
f 61/83/177 62/84/178 64/82/179 63/81/180
f 30/85/181 62/86/182 61/87/183 29/88/184
f 34/89/185 33/90/186 59/79/187 57/78/188
f 38/91/189 37/92/190 61/83/191 63/81/192
f 2/93/193 34/94/194 57/74/195 25/73/196
f 29/88/197 61/87/198 37/95/199 5/96/200
f 59/79/201 33/90/202 38/91/203 63/81/204
f 58/77/205 60/80/206 44/33/207 45/36/208
f 64/82/209 62/84/210 56/48/211 49/47/212
f 26/76/213 58/75/214 45/64/215 13/63/216
f 24/70/217 56/69/218 62/86/219 30/85/220
f 44/33/221 60/80/222 64/82/223 49/47/224
